<svg width="223" height="217" viewBox="0 0 223 217" fill="none" xmlns="http://www.w3.org/2000/svg">
<path d="M80.0456 43.8457C82.3791 39.4571 87.8288 37.7907 92.2175 40.1241L164.619 78.6211C169.008 80.9547 170.674 86.4043 168.341 90.793L129.843 163.194C127.51 167.583 122.061 169.249 117.673 166.916L100.324 157.691V148.631L114.364 156.097C118.753 158.43 124.202 156.764 126.536 152.375L157.991 93.2178C160.324 88.8291 158.658 83.3795 154.269 81.0459L95.112 49.5918C90.7233 47.2583 85.2737 48.9239 82.9401 53.3125L61.3601 93.8994H53.4323L80.0456 43.8457Z" fill="#C0C0C0"/>
<circle cx="140" cy="91.3935" r="10" transform="rotate(28 140 91.3935)" fill="#C0C0C0"/>
<circle cx="106.659" cy="100.847" r="10" transform="rotate(28 106.659 100.847)" fill="#C0C0C0"/>
<circle cx="116.996" cy="134.658" r="10" transform="rotate(28 116.996 134.658)" fill="#C0C0C0"/>
<circle cx="94.0872" cy="66.981" r="10" transform="rotate(28 94.0872 66.981)" fill="#C0C0C0"/>
<path d="M103.961 182.392C103.961 187.363 99.9319 191.392 94.9613 191.392H12.9613C7.99072 191.392 3.96129 187.363 3.96129 182.392V100.392C3.96129 95.4218 7.99073 91.3924 12.9613 91.3924H94.9613C99.9319 91.3924 103.961 95.4218 103.961 100.392V182.392ZM19.9613 98.3924C14.9907 98.3924 10.9613 102.422 10.9613 107.392V174.392C10.9613 179.363 14.9907 183.392 19.9613 183.392H86.9613C91.9319 183.392 95.9613 179.363 95.9613 174.392V107.392C95.9613 102.422 91.9319 98.3924 86.9613 98.3924H19.9613Z" fill="#FFD700"/>
<circle cx="53.9613" cy="141.392" r="10" fill="#FFD700"/>
<circle cx="28.9613" cy="167.392" r="10" fill="#FFD700"/>
<circle cx="80.9613" cy="116.392" r="10" fill="#FFD700"/>
</svg>
